<svg xmlns="http://www.w3.org/2000/svg" viewBox="0 0 520 300">
    <defs><linearGradient id="g" x1="0" y1="0" x2="1" y2="1"><stop stop-color="#dff7ff"/><stop offset=".55" stop-color="#78d3c8"/><stop offset="1" stop-color="#0b3040"/></linearGradient><filter id="sh" x="-30%" y="-30%" width="160%" height="160%"><feDropShadow dx="0" dy="14" stdDeviation="12" flood-color="#001321" flood-opacity=".28"/></filter></defs>
    <rect width="520" height="300" fill="#eff8fa"/>
    <circle cx="430" cy="40" r="90" fill="#00b8b1" opacity=".1"/>
    <g filter="url(#sh)"><g transform="translate(320 45) rotate(-8)"><rect width="170" height="105" rx="4" fill="#102638" stroke="#00b8b1" stroke-width="3"/><g stroke="#5ee7e0" stroke-width="1"><path d="M20 0v105M55 0v105M90 0v105M125 0v105M160 0v105M0 25h170M0 52h170M0 79h170"/></g></g><g transform="translate(70 150)"><rect x="95" y="35" width="115" height="70" rx="18" fill="#111923" stroke="#1ed1c7" stroke-width="4"/><circle cx="94" cy="70" r="42" fill="#00a9a0"/><circle cx="94" cy="70" r="20" fill="#08131f" stroke="#d7f7f4" stroke-width="8"/><rect x="210" y="55" width="54" height="42" rx="8" fill="#0f141b"/><rect x="130" y="8" width="48" height="36" rx="8" fill="#131a24"/><rect x="45" y="112" width="185" height="14" rx="4" fill="#0c1219"/></g><g transform="translate(245 145)"><rect x="0" y="0" width="82" height="122" rx="8" fill="#008f8a" stroke="#d8ffff" stroke-width="3"/><rect x="18" y="20" width="46" height="36" rx="3" fill="#0b1822"/><circle cx="24" cy="80" r="6" fill="#f44336"/><circle cx="42" cy="80" r="6" fill="#00e5d8"/><circle cx="60" cy="80" r="6" fill="#ffc107"/></g></g>
    <text x="28" y="268" font-family="Arial" font-size="24" font-weight="800" fill="#06313d">Solar Booster</text>
    </svg>